# xmcd CD database file
#
# Track frame offsets:
#	150
#	15382
#	25046
#	42966
#	68668
#	90458
#	101897
#	121667
#	145770
#	166351
#	182064
#	194866
#	214278
#	240403
#	268512
#	279177
#	305692
#
# Disc length: 4177 seconds
#
# Revision: 0
# Processed by: cddbd v1.5.2PL0 Copyright (c) Steve Scherf et al.
# Submitted via: CDex 1.50
#
DISCID=e7104f11
DTITLE=Bar Classics Jazz - Best of the Jazz Sides CD2
DYEAR=2010
DGENRE=Jazz
TTITLE0=Fly me to the moon - Eldar
TTITLE1=Choro - Antonio Carlos Jobim
TTITLE2=Save Your Love for Me - Eliane Elias
TTITLE3=I remember Clifford - Art Blakey
TTITLE4=Body and Soul - Duke Ellington
TTITLE5=A Foggy Day - George Benson
TTITLE6=Imagination - Illinois Jacquet
TTITLE7=I Can t give you anything but love - Ellis Marsalis
TTITLE8=Bluesette - Toots Thielemans
TTITLE9=Michelle - Coleman Hawkins
TTITLE10=Weep no more - Dave Brubeck feat Carmen McRae
TTITLE11=Fools Rush In - Dave Mc Kenna and John Drew and Osie Johnson
TTITLE12=Danny Boy - Lou Donaldson
TTITLE13=The two lonely people - Bill Evans
TTITLE14=The Look of Love - Nina Simone
TTITLE15=Nature Boy - Aziza Mustafà Zadeh
TTITLE16=I Left my Heart in San Francisco - The Ralph Sharon Trio
EXTD=YEAR: 2010
EXTT0=
EXTT1=
EXTT2=
EXTT3=
EXTT4=
EXTT5=
EXTT6=
EXTT7=
EXTT8=
EXTT9=
EXTT10=
EXTT11=
EXTT12=
EXTT13=
EXTT14=
EXTT15=
EXTT16=
PLAYORDER=
